<svg xmlns="http://www.w3.org/2000/svg" width="32" height="32" viewBox="0 0 32 32" fill="none">
  <!-- Background circle -->
  <rect width="32" height="32" rx="8" fill="#863bff"/>
  
  <!-- Document/Note icon -->
  <path d="M9 8C9 6.89543 9.89543 6 11 6H18.5858C19.1162 6 19.6249 6.21071 20 6.58579L23.4142 10C23.7893 10.3751 24 10.8838 24 11.4142V22C24 23.1046 23.1046 24 22 24H11C9.89543 24 9 23.1046 9 22V8Z" fill="white"/>
  
  <!-- Paper lines -->
  <line x1="12" y1="10" x2="16" y2="10" stroke="#863bff" stroke-width="1.5" stroke-linecap="round"/>
  <line x1="12" y1="13" x2="19" y2="13" stroke="#863bff" stroke-width="1.5" stroke-linecap="round"/>
  <line x1="12" y1="16" x2="19" y2="16" stroke="#863bff" stroke-width="1.5" stroke-linecap="round"/>
  <line x1="12" y1="19" x2="16" y2="19" stroke="#863bff" stroke-width="1.5" stroke-linecap="round"/>
  
  <!-- Super/S indicator -->
  <circle cx="20" cy="20" r="4" fill="#863bff"/>
  <text x="20" y="21.5" font-family="Arial, sans-serif" font-size="6" font-weight="bold" text-anchor="middle" fill="white">S</text>
</svg>